<svg width="16" height="16" fill="none" xmlns="http://www.w3.org/2000/svg"><path fill-rule="evenodd" clip-rule="evenodd" d="M1 7.3c0-2.625 0-3.937.668-4.857a3.5 3.5 0 0 1 .775-.775C3.363 1 4.675 1 7.3 1h1.4c2.625 0 3.937 0 4.857.668a3.5 3.5 0 0 1 .775.775C15 3.363 15 4.675 15 7.3v1.4c0 2.625 0 3.937-.668 4.857a3.499 3.499 0 0 1-.775.775C12.637 15 11.325 15 8.7 15H7.3c-2.625 0-3.937 0-4.857-.668a3.5 3.5 0 0 1-.775-.775C1 12.637 1 11.325 1 8.7V7.3Zm4.813-3.237a.656.656 0 1 0 0-1.313.656.656 0 0 0 0 1.313Zm2.843-.657a.656.656 0 1 1-1.312 0 .656.656 0 0 1 1.312 0Zm1.531.656a.656.656 0 1 0 0-1.312.656.656 0 0 0 0 1.313Z" fill="currentColor"/></svg>