<svg width="16" height="16" fill="none" xmlns="http://www.w3.org/2000/svg"><path d="M1.6 7.3v-3c.2-.7.3-1.2.6-1.5.1-.3.3-.5.6-.6a3 3 0 0 1 1.5-.5l3-.1h4.4a3 3 0 0 1 1.5.6c.3.1.5.3.6.6.3.3.4.8.5 1.5l.1 3v4.4a3 3 0 0 1-.6 1.5c-.1.3-.3.5-.6.6a3 3 0 0 1-1.5.5l-3 .1H7.3a31 31 0 0 1-3 0 3 3 0 0 1-1.5-.6c-.3-.1-.5-.3-.6-.6a3 3 0 0 1-.5-1.5l-.1-3V7.3Z" stroke="currentColor" stroke-width="1.2"/><path d="M1.9 12.6c.2.7.7 1.3 1.2 1.8l1-.2h1.3l3.5.4h3c.4 0 .8-.2 1.3-.4l.6-.6.4-.8c.2-.4.4-.9.4-1.3l-.1-1.5V8.8l.1-1V4.1c-.2-.6-.6-1.7-1.3-1.8-.5-.1-1 0-1.6-.2l-1.5-.4c-1-.2-2-.2-3-.2H3.6c-.4 0-1 .2-1.1.6-.2.3-.5.7-.5 1l-.1.6V4c-.2.3-.2.6-.2.8l-.2.9V7l.1 3 .2 1.6c0 .3 0 .7.2 1Z" stroke="currentColor" stroke-width="1.2" stroke-linecap="round"/><path d="m5.5 4.5-.5.1v.5l.6-.1v-.4M7.8 4.5V5c0 .2.4.3.5.2l.1-.2-.4-.2M10.7 4.5v.2h-.2s0 0 0 0l.1.2h.2v-.2" stroke="currentColor" stroke-width="1.2" stroke-linecap="round"/></svg>