<svg width="14" height="14" viewBox="0 0 14 14" fill="none" xmlns="http://www.w3.org/2000/svg">
	<path
		fill-rule="evenodd"
		clip-rule="evenodd"
		d="M14 7C14 3.13401 10.866 0 7 0C3.13401 0 0 3.13401 0 7C0 10.866 3.13401 14 7 14C10.866 14 14 10.866 14 7ZM5.59467 9.09467C5.30178 9.38756 5.30178 9.86244 5.59467 10.1553C5.88756 10.4482 6.36244 10.4482 6.65533 10.1553L9.28033 7.53033L9.81066 7L9.28033 6.46967L6.65533 3.84467C6.36244 3.55178 5.88756 3.55178 5.59467 3.84467C5.30178 4.13756 5.30178 4.61244 5.59467 4.90533L7.68934 7L5.59467 9.09467Z"
		fill="currentColor"
	/>
</svg>
