<svg width="16" height="16" fill="none" xmlns="http://www.w3.org/2000/svg"><circle cx="8" cy="8" r="6.4" stroke="currentColor" stroke-width="1.2"/><path d="m5.5 10.2 1-1 1-1.2L9 7c.2-.3.4-.6.8-.8.2-.1.5-.1.7-.3" stroke="currentColor" stroke-width="1.2" stroke-linecap="round"/><path d="M5.4 5.8C6.6 7 7.9 8.1 9.4 9c.3.3 1 .8 1.1 1.3" stroke="currentColor" stroke-width="1.2" stroke-linecap="round"/><path d="M5.3 2.1c.7-.5 1.6-.4 2.4-.4 1.4 0 1.8.4 2.7.7h.4l.4.2.7.3c.2 0 .4 0 .6.2l.4.7c.3.3.4.8.6 1l.4.7c.2.6.6 1.2.6 1.8a6 6 0 0 1-.5 2.4l-1.1 2c-.5.9-1.4 1.5-2.3 2-.4.3-.9.4-1.4.4l-.9.2c-.8 0-2-.1-2.6-.6-.8-.5-1.5-.6-2.2-1.2a6.4 6.4 0 0 1-1.7-2.3c-.3-.6-.3-1-.3-1.7a6.8 6.8 0 0 1 1.8-4.9l.7-.8 1.3-.7Z" stroke="currentColor" stroke-width="1.2" stroke-linecap="round"/></svg>