<svg width="16" height="16" fill="none" xmlns="http://www.w3.org/2000/svg"><path fill-rule="evenodd" clip-rule="evenodd" d="m14 8.4-2.7 2.9-.9-.9 1.8-1.8H3.8l1.8 1.8-.9.9L2 8.4 1.5 8l.4-.4 2.8-2.9.9.9-1.8 1.8h8.4l-1.8-1.8.9-.9L14 7.6l.4.4-.4.4Z" fill="currentColor"/><path d="M2.9 7.9c1.3 0 2.7-.3 4 0h1l1.2.2 2 .1 1.7-.2M2 8c.2 0 .4.2.5.3l.3.3c.4.3 1 .4 1.2.8l.4.7.3.3s.2.3.1 0M10.9 5.2c.5.4.8 1 1.3 1.3l.4.4.3.3.3.3.3.2" stroke="currentColor" stroke-width="1.2" stroke-linecap="round"/><path d="M2 8c.2 0 .3-.2.4-.3.2 0 .3-.2.4-.3l.3-.1.1-.1.4-.3.2-.2.2-.2.3-.3.5-.6M13.6 8c0 .3-.3.6-.5.8-.2.3-.4.6-.7.7l-.3.3-.3.2-.5.5" stroke="currentColor" stroke-width="1.2" stroke-linecap="round"/></svg>