<svg width="16" height="16" fill="none" xmlns="http://www.w3.org/2000/svg"><path fill-rule="evenodd" clip-rule="evenodd" d="M4.4 5.1v2h1.2V5H13V4H5.6V2H4.4v2H2V5h2.4Zm5 5.6v-2h1.2v2H13V12h-2.4v2H9.4v-2H2v-1.2h7.4Z" fill="currentColor"/><path d="m2 4.5 1.2-.1L4.6 4c.6 0 1 0 1.6.2l1.6.1 2 .2c.3 0 .7.3 1.1.3h1.6" stroke="currentColor" stroke-width="1.2" stroke-linecap="round"/><path d="m5 1.9-.1 1.8-.3 1.5v1.5M2 11.3h1.5l.8.4 1.2.2h1.4l3.7-.2 1.6-.2h.5" stroke="currentColor" stroke-width="1.2" stroke-linecap="round"/><path d="M10.2 8.8a7.3 7.3 0 0 1-.5 2.9l-.1.6c0 .4 0 1 .2 1.4" stroke="currentColor" stroke-width="1.2" stroke-linecap="round"/></svg>