<svg width="16" height="16" fill="none" xmlns="http://www.w3.org/2000/svg"><path d="M11 11.389c0 .592-.432 2-.9 2.361-.444.344-1.075.233-1.63.233-1.003 0-2.02-.051-3.032-.051-.398 0-.791-.102-1.194-.102-.275 0-.658-.11-.877-.278a3.58 3.58 0 0 1-.63-.602c-.165-.2-.224-.46-.346-.678-.142-.254-.057-.614-.14-.883 0-1.11-.246-1.889-.246-2.451-.026-.347.052-.93.052-1.238 0-1.12.123-1.352.862-2.106.448-.353.952-.432 1.476-.548.12-.026.247-.04.38-.046" stroke="currentColor" stroke-width="1.2" stroke-linecap="round"/><path d="M5.641 10.05c0-.475-.218-.874-.335-1.32-.093-.356-.145-.717-.247-1.066-.125-.427-.011-1.056-.011-1.5 0-.521.037-1.046.101-1.562.056-.454.058-1.268.566-1.496.202-.09.318-.398.544-.5.259-.116.52-.334.816-.35.342-.018.66-.236 1-.25.411-.015.826 0 1.237 0h1.335c.344 0 .674.15 1.011.15.618 0 1.179.125 1.624.575.178.18.337.361.374.625.045.318.183.667.195.988.026.72.148 1.423.148 2.16 0 .234.008.458-.038.688-.033.163-.11.346-.11.51 0 .337-.03.747-.102 1.075-.123.563-.245 1.025-.665 1.449-.377.38-.981.596-1.508.624-.314.017-.642.05-.95.05-.332 0-.644.1-.979.1-.589 0-1.16-.07-1.73-.153-.26-.037-.558-.097-.817-.097-.165 0-.687-.119-.813-.225-.223-.187-.432-.258-.618-.5-.202-.261-.374-.59-.374-.924" stroke="currentColor" stroke-width="1.2" stroke-linecap="round"/></svg>