<svg width="16" height="16" fill="none" xmlns="http://www.w3.org/2000/svg"><path fill-rule="evenodd" clip-rule="evenodd" d="M1.573 1.237C1 2.025 1 3.15 1 5.4v5.2c0 2.25 0 3.375.573 4.163.185.255.409.479.664.664C3.025 16 4.15 16 6.4 16h3.2c2.25 0 3.375 0 4.163-.573.255-.185.479-.409.664-.664C15 13.975 15 12.85 15 10.6V5.4c0-2.25 0-3.375-.573-4.163a3.003 3.003 0 0 0-.664-.664C12.975 0 11.85 0 9.6 0H6.4C4.15 0 3.025 0 2.237.573a3 3 0 0 0-.664.664ZM12 3H4v1.5h8V3ZM4 6h8v1.5H4V6Zm5 3H4v1.5h5V9Z" fill="currentColor"/></svg>