<svg width="16" height="16" fill="none" xmlns="http://www.w3.org/2000/svg"><rect x="2.6" y="1.6" width="10.8" height="12.8" rx="2.4" stroke="currentColor" stroke-width="1.2"/><path d="M3.6 2c-.3 0-.6.5-.8.7-.4.3-.5.7-.6 1.1v2l.1 1.6c0 1.2.3 2.4.3 3.5 0 .6 0 1.2.2 1.7 0 .3.2.5.3.8 0 .2.3.5.5.5l.7.4 1.2.2h1.2l1.1.2h1.5l1.2-.3c.4 0 .8-.2 1.2-.4.3-.2.6-.2.9-.5.2-.2.3-.7.4-1l.2-1 .3-.7c.2-.4.1-.9.2-1.3V8l-.2-.5V4.7l-.2-1c0-.3-.1-.7-.4-.9-.5-.5-1.3-.8-2-1H9L7 2c-.8 0-1.6.2-2.4 0l-1.2-.2M5 5.7H9.8" stroke="currentColor" stroke-width="1.2" stroke-linecap="round"/><path d="m5.1 8.4 2 .1 1 .3" stroke="currentColor" stroke-width="1.2" stroke-linecap="round"/></svg>