<svg width="16" height="16" fill="none" xmlns="http://www.w3.org/2000/svg"><rect x="2.6" y="1.6" width="10.8" height="12.8" rx="2.4" stroke="currentColor" stroke-width="1.2"/><path d="M7 10.7c-.4 0-.7-.4-1-.7l-.4-1.3V7.6c0-.4.2-.7.3-1l.7-.9a2 2 0 0 1 1-.6c.3-.1.7-.2 1 0l.8.6.8 1.1.2.6.1.8-.1 1-.2.4c0 .1 0 .3-.2.4l-.4.4a2 2 0 0 1-1.4.6h-.7l-.6-.4" stroke="currentColor" stroke-width="1.2" stroke-linecap="round"/><path d="M9.6 1.5h-4c-.5 0-1 .3-1.6.3-.4 0-.5.2-.7.6l-.5 1.3c-.2.5-.2 1.2-.2 1.8V7.2l.1.7v.6c0 .6 0 1 .2 1.6l.1.8-.1.6c-.1.4-.2.9-.1 1.2l.3.7.4.7c.2.2 1 .1 1.2.1.4 0 .9 0 1.3.2h.5l.9.1H10l.9-.2h.5c.3-.3.6-.3.9-.4.1-.1 0 0 .1.1l.1-.1.3-.5c0-.2.2-.3.3-.5l.3-.9a6 6 0 0 0 0-2l-.1-1.3V7.3s0 0 0 0l-.1-.2v-.6l.2-1-.1-2.1c-.1-.3-.2-.8-.4-1-.3-.4-.5-.6-1-.7l-.5-.2a3 3 0 0 0-.6 0h-1" stroke="currentColor" stroke-width="1.2" stroke-linecap="round"/></svg>