<svg width="16" height="16" viewBox="0 0 16 16" fill="none" xmlns="http://www.w3.org/2000/svg">
	<path
		d="M5.75 8.5C5.75 7.84636 6.02571 6.99147 6.49752 6.3024C6.98174 5.59519 7.53444 5.25 8 5.25C8.46556 5.25 9.01826 5.59519 9.50248 6.3024C9.97429 6.99147 10.25 7.84636 10.25 8.5C10.25 9.74264 9.24264 10.75 8 10.75C6.75736 10.75 5.75 9.74264 5.75 8.5Z"
		fill="currentColor"
	/>
	<path
		fill-rule="evenodd"
		clip-rule="evenodd"
		d="M2.57295 2.23664C2 3.02524 2 4.15016 2 6.4V9.6C2 11.8498 2 12.9748 2.57295 13.7634C2.75799 14.018 2.98196 14.242 3.23664 14.4271C4.02524 15 5.15016 15 7.4 15H8.6C10.8498 15 11.9748 15 12.7634 14.4271C13.018 14.242 13.242 14.018 13.4271 13.7634C14 12.9748 14 11.8498 14 9.6V6.4C14 4.15016 14 3.02524 13.4271 2.23664C13.242 1.98196 13.018 1.75799 12.7634 1.57295C11.9748 1 10.8498 1 8.6 1H7.4C5.15016 1 4.02524 1 3.23664 1.57295C2.98196 1.75799 2.75799 1.98196 2.57295 2.23664ZM8 3.75C6.8087 3.75 5.8614 4.57638 5.25984 5.45496C4.64586 6.35168 4.25 7.49679 4.25 8.5C4.25 10.5711 5.92893 12.25 8 12.25C10.0711 12.25 11.75 10.5711 11.75 8.5C11.75 7.49679 11.3541 6.35168 10.7402 5.45496C10.1386 4.57638 9.1913 3.75 8 3.75Z"
		fill="currentColor"
	/>
</svg>
