<svg width="12" height="14" viewBox="0 0 12 14" fill="none" xmlns="http://www.w3.org/2000/svg">
<path d="M3.75 7.5C3.75 6.84636 4.02571 5.99147 4.49752 5.3024C4.98174 4.59519 5.53444 4.25 6 4.25C6.46556 4.25 7.01826 4.59519 7.50248 5.3024C7.97429 5.99147 8.25 6.84636 8.25 7.5C8.25 8.74264 7.24264 9.75 6 9.75C4.75736 9.75 3.75 8.74264 3.75 7.5Z" fill="currentColor"/>
<path fill-rule="evenodd" clip-rule="evenodd" d="M0.572949 1.23664C0 2.02524 0 3.15016 0 5.4V8.6C0 10.8498 0 11.9748 0.572949 12.7634C0.757988 13.018 0.98196 13.242 1.23664 13.4271C2.02524 14 3.15016 14 5.4 14H6.6C8.84984 14 9.97476 14 10.7634 13.4271C11.018 13.242 11.242 13.018 11.4271 12.7634C12 11.9748 12 10.8498 12 8.6V5.4C12 3.15016 12 2.02524 11.4271 1.23664C11.242 0.98196 11.018 0.757988 10.7634 0.572949C9.97476 0 8.84984 0 6.6 0H5.4C3.15016 0 2.02524 0 1.23664 0.572949C0.98196 0.757988 0.757988 0.98196 0.572949 1.23664ZM6 2.75C4.8087 2.75 3.8614 3.57638 3.25984 4.45496C2.64586 5.35168 2.25 6.49679 2.25 7.5C2.25 9.57107 3.92893 11.25 6 11.25C8.07107 11.25 9.75 9.57107 9.75 7.5C9.75 6.49679 9.35414 5.35168 8.74016 4.45496C8.1386 3.57638 7.1913 2.75 6 2.75Z" fill="currentColor"/>
</svg>
