<svg width="16" height="16" fill="none" xmlns="http://www.w3.org/2000/svg"><path d="M5.75 8.5c0-.654.276-1.509.748-2.198C6.982 5.595 7.534 5.25 8 5.25c.466 0 1.018.345 1.502 1.052.472.69.748 1.544.748 2.198a2.25 2.25 0 0 1-4.5 0Z" fill="currentColor"/><path fill-rule="evenodd" clip-rule="evenodd" d="M2.573 2.237C2 3.025 2 4.15 2 6.4v3.2c0 2.25 0 3.375.573 4.163.185.255.409.479.664.664C4.025 15 5.15 15 7.4 15h1.2c2.25 0 3.375 0 4.163-.573.255-.185.479-.409.664-.664C14 12.975 14 11.85 14 9.6V6.4c0-2.25 0-3.375-.573-4.163a3.003 3.003 0 0 0-.664-.664C11.975 1 10.85 1 8.6 1H7.4c-2.25 0-3.375 0-4.163.573a3 3 0 0 0-.664.664ZM8 3.75c-1.191 0-2.139.826-2.74 1.705-.614.897-1.01 2.042-1.01 3.045a3.75 3.75 0 1 0 7.5 0c0-1.003-.396-2.148-1.01-3.045C10.14 4.576 9.191 3.75 8 3.75Z" fill="currentColor"/></svg>