<svg width="17" height="16" viewBox="0 0 17 16" fill="none" xmlns="http://www.w3.org/2000/svg">
<path fill-rule="evenodd" clip-rule="evenodd" d="M0.5 8C0.5 3.58172 4.08172 0 8.5 0C12.9183 0 16.5 3.58172 16.5 8C16.5 12.4183 12.9183 16 8.5 16C4.08172 16 0.5 12.4183 0.5 8ZM7.75 12.4V7H9.25V12.4H7.75ZM8.5 3.42857C7.86882 3.42857 7.35714 3.94025 7.35714 4.57143C7.35714 5.20261 7.86882 5.71429 8.5 5.71429C9.13118 5.71429 9.64286 5.20261 9.64286 4.57143C9.64286 3.94025 9.13118 3.42857 8.5 3.42857Z" fill="currentColor"/>
</svg>
