<svg width="16" height="16" fill="none" xmlns="http://www.w3.org/2000/svg"><path d="m11.8 9.3 2-2c1-1 1-2.7 0-3.7l-1.4-1.3c-1-1-2.7-1-3.8 0L6.7 4.2m2.6 7.6-2 2c-1 1-2.7 1-3.7 0l-1.3-1.4c-1-1-1-2.7 0-3.8l1.9-1.9m6.3-1.2L8 8l-2.5 2.5" stroke="currentColor" stroke-width="1.2"/><path d="M4.1 6.6c-.7 0-1.3.9-1.7 1.4l-.7 1.5a4 4 0 0 0-.3 1.6c0 .7.9 1.1 1.4 1.5l.8.6.8.6c.5.4 1 .5 1.7.5 1 0 1.6-.8 2.3-1.3.1-.1 1.1-.8 1-1M6.8 4.4v-.2l.4-.4c.4-.4.7-.8 1.1-1 .8-.6 1.5-1 2.4-.8.5.1 1 .1 1.4.6.5.4.8 1 1.4 1.4.4.3.8.6.8 1.2 0 .5 0 1-.3 1.6-.2.5-.4 1-.8 1.4-.2.2-.8.8-1 .7" stroke="currentColor" stroke-width="1.2" stroke-linecap="round"/><path d="M5.6 10.2c0-.3.4-.6.6-.8l.9-1L8.6 7l1-.7.8-.3" stroke="currentColor" stroke-width="1.2" stroke-linecap="round"/></svg>