<svg width="16" height="16" viewBox="0 0 16 16" fill="none" xmlns="http://www.w3.org/2000/svg">
    <path d="M10.2727 9.40323C9.72394 9.40323 9.22791 9.32124 8.78459 9.15726C8.34398 8.99328 7.96553 8.75672 7.64927 8.44758C7.3357 8.13844 7.09512 7.76613 6.92752 7.33065C6.75993 6.89247 6.67613 6.39919 6.67613 5.85081C6.67613 5.70027 6.68694 5.53629 6.70857 5.35887C6.73289 5.17876 6.76398 5.00538 6.80182 4.83871C6.83967 4.67204 6.88292 4.53226 6.93158 4.41935C6.9505 4.37366 6.96266 4.33602 6.96807 4.30645C6.97348 4.27419 6.97618 4.24866 6.97618 4.22984C6.97618 4.17608 6.9559 4.125 6.91536 4.07661C6.87481 4.02554 6.81534 4 6.73695 4C6.71532 4 6.68289 4.00403 6.63964 4.0121C6.59638 4.01747 6.55178 4.02823 6.50583 4.04435C6.00574 4.24328 5.56783 4.54167 5.19209 4.93952C4.81635 5.33468 4.52306 5.79167 4.31221 6.31048C4.10407 6.8293 4 7.37097 4 7.93548C4 8.52957 4.10542 9.07392 4.31627 9.56855C4.52982 10.0632 4.82582 10.4933 5.20426 10.8589C5.5854 11.2218 6.03007 11.5027 6.53827 11.7016C7.04916 11.9005 7.60061 12 8.1926 12C8.63051 12 9.04815 11.9382 9.44551 11.8145C9.84288 11.6935 10.2078 11.5242 10.5403 11.3065C10.8728 11.0914 11.1607 10.8414 11.404 10.5565C11.6472 10.2688 11.8311 9.96102 11.9554 9.63306C11.9743 9.58468 11.9865 9.54032 11.9919 9.5C11.9973 9.45699 12 9.42608 12 9.40726C12 9.33199 11.9743 9.27151 11.923 9.22581C11.8716 9.18011 11.8175 9.15726 11.7608 9.15726C11.7148 9.15726 11.6567 9.16935 11.5864 9.19355C11.4296 9.24462 11.2337 9.29301 10.9985 9.33871C10.7633 9.38172 10.5214 9.40323 10.2727 9.40323Z" fill="currentColor" />
    <path d="M10.5 4C10.2239 4 10 4.22386 10 4.5V5H9.5C9.22386 5 9 5.22386 9 5.5C9 5.77614 9.22386 6 9.5 6H10V6.5C10 6.77614 10.2239 7 10.5 7C10.7761 7 11 6.77614 11 6.5V6H11.5C11.7761 6 12 5.77614 12 5.5C12 5.22386 11.7761 5 11.5 5H11V4.5C11 4.22386 10.7761 4 10.5 4Z" fill="currentColor" />
</svg>
    