<svg width="16" height="16" fill="none" xmlns="http://www.w3.org/2000/svg"><path d="m7 4.4-.2.4a6 6 0 0 0-.1 1c0 .6 0 1 .2 1.5a3.1 3.1 0 0 0 1.9 1.9L6.9 4.4Zm0 0Zm2 4.2A2.5 2.5 0 0 1 7.5 7 3.5 3.5 0 0 1 7.4 5v-.3l.2-.3v-.2a.8.8 0 0 0-.9-.8h-.4A5 5 0 0 0 3.8 6a5 5 0 0 0 0 3.8c.2.6.6 1 1 1.5.4.4 1 .7 1.5 1a5.1 5.1 0 0 0 4.6-.5l1-.9.6-1v-.3l.1-.2c0-.2 0-.5-.3-.6a.8.8 0 0 0-.5-.2h-.4a4.5 4.5 0 0 1-1.1.2c-.5 0-1 0-1.3-.2Z" stroke="currentColor" stroke-width="1.2"/><rect x="11" y="3" width="1.2" height="3" rx=".6" fill="currentColor"/><rect x="13.1" y="3.9" width="1.2" height="3" rx=".6" transform="rotate(90 13.1 3.9)" fill="currentColor"/><path d="M10.4 4.4H12.4l.2.1M11.6 3.3v2.2M6.6 3.3c-.5 0-1.2.5-1.5.9-.3.2-.4.7-.6 1l-.8 1.2a3 3 0 0 0-.6 1.8c0 .3.2.5.4.8l.5 1c.3.6.6 1.4 1.3 1.7.6.2 1.4.6 2.1.6h1.2l1.8-.8 1-.5.7-.6c.2-.3.6-.8.6-1.2 0-.3-.3-.4-.6-.5-.6 0-1.2 0-1.8-.2-.7 0-1.6 0-2.1-.5-.6-.5-1-1-1-1.7-.2-.7 0-1.4.1-2v-.7h-.2" stroke="currentColor" stroke-width="1.2" stroke-linecap="round"/></svg>