<svg width="16" height="16" fill="none" xmlns="http://www.w3.org/2000/svg"><path d="M10.273 9.403a4.264 4.264 0 0 1-1.488-.246c-.441-.164-.82-.4-1.136-.71a3.119 3.119 0 0 1-.721-1.116 4.117 4.117 0 0 1-.252-1.48c0-.15.01-.315.033-.492.024-.18.055-.354.093-.52.038-.167.08-.307.13-.42a.49.49 0 0 0 .045-.19.235.235 0 0 0-.062-.152c-.04-.051-.1-.077-.178-.077a.584.584 0 0 0-.097.012.644.644 0 0 0-.134.032c-.5.2-.938.498-1.314.896A4.342 4.342 0 0 0 4 7.935c0 .595.105 1.139.316 1.634.214.494.51.924.888 1.29.381.363.826.644 1.334.843A4.52 4.52 0 0 0 8.193 12c.438 0 .855-.062 1.253-.185.397-.121.762-.29 1.094-.508.333-.216.62-.466.864-.75.243-.288.427-.596.551-.924A.583.583 0 0 0 12 9.407a.231.231 0 0 0-.077-.181.242.242 0 0 0-.162-.069.56.56 0 0 0-.175.037c-.156.05-.352.099-.588.145a4.027 4.027 0 0 1-.725.064ZM10.5 4a.5.5 0 0 0-.5.5V5h-.5a.5.5 0 0 0 0 1h.5v.5a.5.5 0 0 0 1 0V6h.5a.5.5 0 0 0 0-1H11v-.5a.5.5 0 0 0-.5-.5Z" fill="currentColor"/></svg>