<svg width="16" height="16" fill="none" xmlns="http://www.w3.org/2000/svg"><path d="M1.6 7.3v-3c.2-.7.3-1.2.6-1.5.1-.3.3-.5.6-.6a3 3 0 0 1 1.5-.5l3-.1h4.4a3 3 0 0 1 1.5.6c.3.1.5.3.6.6.3.3.4.8.5 1.5l.1 3v4.4a3 3 0 0 1-.6 1.5c-.1.3-.3.5-.6.6a3 3 0 0 1-1.5.5l-3 .1H7.3a31 31 0 0 1-3 0 3 3 0 0 1-1.5-.6c-.3-.1-.5-.3-.6-.6a3 3 0 0 1-.5-1.5l-.1-3V7.3Z" stroke="currentColor" stroke-width="1.2"/><path d="M3 10h.8V8.7h.7C5.5 8.7 6 8 6 7.3 6 6.6 5.5 6 4.6 6H3v4Zm.8-2V6.7h.6c.5 0 .7.2.7.6 0 .4-.2.7-.7.7h-.6ZM7.9 10c1.2 0 2-.8 2-2 0-1.3-.8-2-2-2H6.5v4h1.4Zm-.6-.8V6.7h.5C8.6 6.7 9 7.1 9 8s-.4 1.2-1.2 1.2h-.5ZM10.4 10h.8V8.3h1.6v-.7h-1.6v-1H13V6h-2.6v4Z" fill="currentColor"/><path d="M3.1 14.4c-.5-.5-1-1.1-1.2-1.8l-.2-1-.2-1.7V5l.2-.8v-.3l.2-.5c0-.4.3-.8.5-1.1.2-.4.7-.5 1-.6H7.3c1 0 2 0 3 .2l1.4.4c.5.1 1 0 1.6.2.7.1 1.1 1.2 1.2 1.8l.2 2.4v1.1l-.3 1.1V10l.2 1.5c0 .4-.2.9-.4 1.3 0 .3-.2.6-.4.8l-.6.6-1.3.4h-3l-3.5-.4H4.1l-1.2.2" stroke="currentColor" stroke-width="1.2" stroke-linecap="round"/></svg>