<svg width="16" height="16" fill="none" xmlns="http://www.w3.org/2000/svg"><path fill-rule="evenodd" clip-rule="evenodd" d="M.764 1.649C0 2.7 0 4.2 0 7.2v1.6c0 3 0 4.5.764 5.551.247.34.545.638.885.885C2.7 16 4.2 16 7.2 16h1.6c3 0 4.5 0 5.551-.764.34-.247.638-.545.885-.885C16 13.3 16 11.8 16 8.8V7.2c0-3 0-4.5-.764-5.551a4.002 4.002 0 0 0-.885-.885C13.3 0 11.8 0 8.8 0H7.2c-3 0-4.5 0-5.551.764a4 4 0 0 0-.885.885ZM1.642 11H2.72V9.35h.905c1.17 0 1.852-.7 1.852-1.716 0-1.011-.67-1.725-1.825-1.725H1.642V11ZM2.72 8.487V6.789h.726c.621 0 .922.338.922.845 0 .505-.3.853-.917.853h-.731ZM7.909 11c1.552 0 2.491-.96 2.491-2.55 0-1.586-.94-2.54-2.476-2.54h-1.82V11H7.91Zm-.728-.922V6.83h.686c.955 0 1.46.488 1.46 1.619 0 1.136-.505 1.628-1.462 1.628H7.18Zm5.023.922h-1.077V5.91h3.371v.887h-2.294V8.01h2.07v.887h-2.07V11Z" fill="currentColor"/></svg>