<svg width="16" height="16" fill="none" xmlns="http://www.w3.org/2000/svg"><circle cx="8" cy="8" r="6.4" stroke="currentColor" stroke-width="1.2"/><path fill-rule="evenodd" clip-rule="evenodd" d="M6 5.2c-.3.2-.3.6-.3 1.5v2.5c0 1 0 1.4.3 1.6l.3.2c.3 0 .7-.2 1.5-.6L10 9c.8-.5 1.2-.7 1.2-1v-.3c0-.4-.4-.6-1.2-1L7.8 5.6C7 5 6.6 4.9 6.3 5l-.3.2Z" fill="currentColor"/><path d="M6.1 5.4 6 6.8V10.7c.3.4 1-.1 1.3-.3l1.2-.9 1.2-.8c.1-.1 1-.6.8-.8l-.7-.7-1-.7c-.6-.2-1-.6-1.6-.7l-.5-.1v3.7c0-.8.3-1.6.3-2.5 0-.2.2 0 .3.2l1.6.7c.4.2-.3-.3-.4-.4 0 0-.7-.7-.4-.2.3.3.6.7.7 1.1 0 .3-.5.5-.6.6l-1 .6c-.2 0-.3.2-.5.3-.2 0 0-.6 0-.7V6.2" stroke="currentColor" stroke-width="1.2" stroke-linecap="round"/><path d="M5.3 2.1c.7-.5 1.6-.4 2.4-.4 1.4 0 1.8.4 2.7.7h.4l.4.2.7.3c.2 0 .4 0 .6.2l.4.7c.3.3.4.8.6 1l.4.7c.2.6.6 1.2.6 1.8a6 6 0 0 1-.5 2.4l-1.1 2c-.5.9-1.4 1.5-2.3 2-.4.3-.9.4-1.4.4l-.9.2c-.8 0-2-.1-2.6-.6-.8-.5-1.5-.6-2.2-1.2a6.4 6.4 0 0 1-1.7-2.3c-.3-.6-.3-1-.3-1.7a6.8 6.8 0 0 1 1.8-4.9l.7-.8 1.3-.7Z" stroke="currentColor" stroke-width="1.2" stroke-linecap="round"/></svg>