<svg width="16" height="16" viewBox="0 0 16 16" fill="none" xmlns="http://www.w3.org/2000/svg">
    <path d="M11 8C11 9.65685 9.65685 11 8 11C6.34315 11 5 9.65685 5 8C5 6.34315 6.34315 5 8 5C9.65685 5 11 6.34315 11 8Z" fill="currentColor" />
    <path d="M7.5 2.5C7.5 2.22386 7.72386 2 8 2C8.27614 2 8.5 2.22386 8.5 2.5V3.5C8.5 3.77614 8.27614 4 8 4C7.72386 4 7.5 3.77614 7.5 3.5V2.5Z" fill="currentColor" />
    <path d="M7.5 12.5C7.5 12.2239 7.72386 12 8 12C8.27614 12 8.5 12.2239 8.5 12.5V13.5C8.5 13.7761 8.27614 14 8 14C7.72386 14 7.5 13.7761 7.5 13.5V12.5Z" fill="currentColor" />
    <path d="M3.75736 4.46445C3.5621 4.26919 3.5621 3.95261 3.75736 3.75735C3.95262 3.56209 4.26921 3.56209 4.46447 3.75735L5.17158 4.46445C5.36684 4.65972 5.36684 4.9763 5.17158 5.17156C4.97631 5.36682 4.65973 5.36682 4.46447 5.17156L3.75736 4.46445Z" fill="currentColor" />
    <path d="M10.8284 11.5355C10.6331 11.3402 10.6331 11.0237 10.8284 10.8284C11.0237 10.6331 11.3403 10.6331 11.5355 10.8284L12.2426 11.5355C12.4379 11.7308 12.4379 12.0473 12.2426 12.2426C12.0474 12.4379 11.7308 12.4379 11.5355 12.2426L10.8284 11.5355Z" fill="currentColor" />
    <path d="M13.5 7.5C13.7761 7.5 14 7.72386 14 8C14 8.27614 13.7761 8.5 13.5 8.5H12.5C12.2239 8.5 12 8.27614 12 8C12 7.72386 12.2239 7.5 12.5 7.5H13.5Z" fill="currentColor" />
    <path d="M3.5 7.5C3.77614 7.5 4 7.72386 4 8C4 8.27614 3.77614 8.5 3.5 8.5H2.5C2.22386 8.5 2 8.27614 2 8C2 7.72386 2.22386 7.5 2.5 7.5H3.5Z" fill="currentColor" />
    <path d="M11.5355 3.75736C11.7308 3.5621 12.0474 3.5621 12.2427 3.75736C12.4379 3.95262 12.4379 4.26921 12.2427 4.46447L11.5355 5.17158C11.3403 5.36684 11.0237 5.36684 10.8284 5.17158C10.6332 4.97631 10.6332 4.65973 10.8284 4.46447L11.5355 3.75736Z" fill="currentColor" />
    <path d="M4.4645 10.8284C4.65976 10.6331 4.97635 10.6331 5.17161 10.8284C5.36687 11.0237 5.36687 11.3403 5.17161 11.5355L4.4645 12.2426C4.26924 12.4379 3.95266 12.4379 3.75739 12.2426C3.56213 12.0474 3.56213 11.7308 3.75739 11.5355L4.4645 10.8284Z" fill="currentColor" />
</svg>