<svg width="16" height="16" fill="none" xmlns="http://www.w3.org/2000/svg"><path d="M7.5 1.5a.5.5 0 0 1 1 0v1a.5.5 0 0 1-1 0v-1ZM7.5 13.5a.5.5 0 0 1 1 0v1a.5.5 0 0 1-1 0v-1ZM14.5 7.5a.5.5 0 0 1 0 1h-1a.5.5 0 0 1 0-1h1ZM2.5 7.5a.5.5 0 0 1 0 1h-1a.5.5 0 0 1 0-1h1Z" fill="currentColor"/><path d="M8 1.5v1.4M13.1 8h.8l.4.2M8 13.4l-.2.6v.3M2.6 8.2H2L1.7 8l-.1-.1" stroke="currentColor" stroke-width="1.2" stroke-linecap="round"/><circle cx="8" cy="8" r="3" stroke="currentColor" stroke-width="1.2"/><path d="M5.7 10.3c-.3-.4-.4-.8-.5-1.2C5 8.7 5 8.3 5 7.8V6.5l.3-.6a3 3 0 0 1 1.2-.6l.7-.2h.6c.5-.1.9 0 1.3.2l.9.8.8 1.2.2 1.5c0 .4-.4.9-.6 1.1l-1 .8c-.4.3-1 .3-1.5.3-.3 0-.6-.3-1-.4-.3 0-.6 0-.9-.2l-.6-.5" stroke="currentColor" stroke-width="1.2" stroke-linecap="round"/><path d="M12.2 3a.5.5 0 1 1 .7.8l-.7.7a.5.5 0 1 1-.7-.7l.7-.7ZM3.8 11.5a.5.5 0 1 1 .7.7l-.7.7a.5.5 0 0 1-.7-.7l.7-.7ZM13 12.2a.5.5 0 0 1-.8.7l-.7-.7a.5.5 0 1 1 .7-.7l.7.7ZM4.5 3.8a.5.5 0 1 1-.7.7L3 3.8a.5.5 0 0 1 .7-.7l.7.7Z" fill="currentColor"/><path d="M4.4 4.4C4.4 4.2 4 4 4 4l-.4-.3M11.7 4.3l.3-.4.2-.2M11.8 11.7l.4.3s.2 0 .3.2v.5M4.3 11.8 4 12l-.2.2-.4.3" stroke="currentColor" stroke-width="1.2" stroke-linecap="round"/></svg>