<svg width="16" height="16" fill="none" xmlns="http://www.w3.org/2000/svg"><path d="M11 8a3 3 0 1 1-6 0 3 3 0 0 1 6 0ZM7.5 2.5a.5.5 0 0 1 1 0v1a.5.5 0 0 1-1 0v-1ZM7.5 12.5a.5.5 0 0 1 1 0v1a.5.5 0 0 1-1 0v-1ZM3.757 4.464a.5.5 0 1 1 .707-.707l.708.707a.5.5 0 0 1-.708.708l-.707-.708ZM10.828 11.536a.5.5 0 1 1 .708-.708l.707.708a.5.5 0 1 1-.707.707l-.708-.707ZM13.5 7.5a.5.5 0 0 1 0 1h-1a.5.5 0 0 1 0-1h1ZM3.5 7.5a.5.5 0 0 1 0 1h-1a.5.5 0 0 1 0-1h1ZM11.536 3.757a.5.5 0 0 1 .707.707l-.707.708a.5.5 0 1 1-.708-.708l.708-.707ZM4.465 10.828a.5.5 0 1 1 .707.708l-.707.707a.5.5 0 1 1-.708-.707l.708-.708Z" fill="currentColor"/></svg>