<svg width="16" height="16" fill="none" xmlns="http://www.w3.org/2000/svg"><circle cx="8" cy="8" r="6.4" stroke="currentColor" stroke-width="1.2"/><path fill-rule="evenodd" clip-rule="evenodd" d="M8 12a4 4 0 0 0 0-8v8Z" fill="currentColor"/><path d="M9 11.6h.4l1-1.3c.3-.3 1-1.2.7-1-.7.5-1.2 1.2-1.8 1.8-.2.1.1-.6.1-.6.3-.7.6-1.5 1-2.1l-.8 1-.8 1.4v-.2c0-.7.4-1.5.6-2.2L10 6v.2L9 8.7V9L9 8V5c-.1-.3-.1.2-.1.2 0 .6-.2 1-.3 1.6v.7s0 0 0 0l-.1-2.3v-1s0-.1 0 0l.4.1.9.4c.9.5 1.4 1.3 1.6 2.3l.1 1.3c0 .4 0 .8-.3 1v.2L11 9c-.2-.8-.3-1.6-.6-2.3a4 4 0 0 0-1-1.4l-.4-.4c-.3-.1-.5-.3-.6-.5L8.2 4v.6l.3 2.2v2.6" stroke="currentColor" stroke-width="1.2" stroke-linecap="round"/><path d="M5.3 2.1c.7-.5 1.6-.4 2.4-.4 1.4 0 1.8.4 2.7.7h.4l.4.2.7.3c.2 0 .4 0 .6.2l.4.7c.3.3.4.8.6 1l.4.7c.2.6.6 1.2.6 1.8a6 6 0 0 1-.5 2.4l-1.1 2c-.5.9-1.4 1.5-2.3 2-.4.3-.9.4-1.4.4l-.9.2c-.8 0-2-.1-2.6-.6-.8-.5-1.5-.6-2.2-1.2a6.4 6.4 0 0 1-1.7-2.3c-.3-.6-.3-1-.3-1.7a6.8 6.8 0 0 1 1.8-4.9l.7-.8 1.3-.7Z" stroke="currentColor" stroke-width="1.2" stroke-linecap="round"/></svg>